# xmcd CD database file
#
# Track frame offsets:
#	150
#	35897
#	55758
#	77907
#	107554
#	148685
#	190420
#	219417
#	250305
#	267471
#	292684
#
# Disc length: 4135 seconds
#
# Revision: 0
# Processed by: cddbd v1.5.2PL0 Copyright (c) Steve Scherf et al.
# Submitted via: CDex 1.51
#
DISCID=a510250b
DTITLE=Dexter Gordon - Daddy Plays The Horn
DYEAR=1955
DGENRE=Jazz
TTITLE0=Confirmation
TTITLE1=Darn That Dream
TTITLE2=Number Four
TTITLE3=Automn In New York
TTITLE4=You Can Depend On Me
TTITLE5=Daddy Plays The Horn
TTITLE6=Day In, Day Out
TTITLE7=Stanley The Steamer
TTITLE8=Cry Me A River
TTITLE9=Blowin' For Dootsie
TTITLE10=Don't Worry About Me
EXTD=YEAR: 1955
EXTT0=
EXTT1=
EXTT2=
EXTT3=
EXTT4=
EXTT5=
EXTT6=
EXTT7=
EXTT8=
EXTT9=
EXTT10=
PLAYORDER=
